<?xml version="1.0" encoding="UTF-8" standalone="no"?>
<!DOCTYPE svg PUBLIC "-//W3C//DTD SVG 1.1//EN"
 "http://www.w3.org/Graphics/SVG/1.1/DTD/svg11.dtd">
<!-- Generated by graphviz version 2.47.3 (20210619.1520)
 -->
<!-- Title: dependencies Pages: 1 -->
<svg width="312pt" height="247pt"
 viewBox="0.00 0.00 312.00 246.80" xmlns="http://www.w3.org/2000/svg" xmlns:xlink="http://www.w3.org/1999/xlink">
<g id="graph0" class="graph" transform="scale(1 1) rotate(0) translate(4 242.8)">
<title>dependencies</title>
<polygon fill="white" stroke="transparent" points="-4,4 -4,-242.8 308,-242.8 308,4 -4,4"/>
<text text-anchor="middle" x="152" y="-8.2" font-family="sans-serif" font-size="14.00">dependencies</text>
<g id="clust1" class="cluster">
<title>cluster_LoginModule</title>
<polygon fill="none" stroke="black" stroke-dasharray="1,5" points="8,-32.8 8,-230.8 296,-230.8 296,-32.8 8,-32.8"/>
</g>
<g id="clust3" class="cluster">
<title>cluster_LoginModule_imports</title>
<polygon fill="none" stroke="black" points="166,-40.8 166,-92.8 288,-92.8 288,-40.8 166,-40.8"/>
</g>
<g id="clust4" class="cluster">
<title>cluster_LoginModule_exports</title>
<polygon fill="none" stroke="black" points="102,-170.8 102,-222.8 212,-222.8 212,-170.8 102,-170.8"/>
</g>
<g id="clust6" class="cluster">
<title>cluster_LoginModule_providers</title>
<polygon fill="none" stroke="black" points="16,-40.8 16,-92.8 158,-92.8 158,-40.8 16,-40.8"/>
</g>
<!-- RegisterModule -->
<g id="node1" class="node">
<title>RegisterModule</title>
<polygon fill="#8dd3c7" stroke="black" points="280.2,-84.8 277.2,-88.8 256.2,-88.8 253.2,-84.8 173.8,-84.8 173.8,-48.8 280.2,-48.8 280.2,-84.8"/>
<text text-anchor="middle" x="227" y="-62.6" font-family="Times,serif" font-size="14.00">RegisterModule</text>
</g>
<!-- LoginModule -->
<g id="node2" class="node">
<title>LoginModule</title>
<polygon fill="#8dd3c7" stroke="black" points="203.49,-149.8 200.49,-153.8 179.49,-153.8 176.49,-149.8 110.51,-149.8 110.51,-113.8 203.49,-113.8 203.49,-149.8"/>
<text text-anchor="middle" x="157" y="-127.6" font-family="Times,serif" font-size="14.00">LoginModule</text>
</g>
<!-- RegisterModule&#45;&gt;LoginModule -->
<g id="edge1" class="edge">
<title>RegisterModule&#45;&gt;LoginModule</title>
<path fill="none" stroke="black" d="M188.7,-84.91C188.7,-84.91 188.7,-103.79 188.7,-103.79"/>
<polygon fill="black" stroke="black" points="185.2,-103.79 188.7,-113.79 192.2,-103.79 185.2,-103.79"/>
</g>
<!-- LoginService  -->
<g id="node3" class="node">
<title>LoginService </title>
<polygon fill="#fb8072" stroke="black" points="204.42,-214.8 109.58,-214.8 109.58,-178.8 204.42,-178.8 204.42,-214.8"/>
<text text-anchor="middle" x="157" y="-192.6" font-family="Times,serif" font-size="14.00">LoginService </text>
</g>
<!-- LoginModule&#45;&gt;LoginService  -->
<g id="edge2" class="edge">
<title>LoginModule&#45;&gt;LoginService </title>
<path fill="none" stroke="black" stroke-dasharray="5,2" d="M157,-149.91C157,-149.91 157,-168.79 157,-168.79"/>
<polygon fill="black" stroke="black" points="153.5,-168.79 157,-178.79 160.5,-168.79 153.5,-168.79"/>
</g>
<!-- LoginService -->
<g id="node4" class="node">
<title>LoginService</title>
<ellipse fill="#fdb462" stroke="black" cx="87" cy="-66.8" rx="63.12" ry="18"/>
<text text-anchor="middle" x="87" y="-62.6" font-family="Times,serif" font-size="14.00">LoginService</text>
</g>
<!-- LoginService&#45;&gt;LoginModule -->
<g id="edge3" class="edge">
<title>LoginService&#45;&gt;LoginModule</title>
<path fill="none" stroke="black" d="M130.28,-79.95C130.28,-79.95 130.28,-103.49 130.28,-103.49"/>
<polygon fill="black" stroke="black" points="126.78,-103.49 130.28,-113.49 133.78,-103.49 126.78,-103.49"/>
</g>
</g>
</svg>
