<?xml version="1.0" encoding="UTF-8" standalone="no"?>
<!DOCTYPE svg PUBLIC "-//W3C//DTD SVG 1.1//EN"
 "http://www.w3.org/Graphics/SVG/1.1/DTD/svg11.dtd">
<!-- Generated by graphviz version 2.47.3 (20210619.1520)
 -->
<!-- Title: dependencies Pages: 1 -->
<svg width="775pt" height="174pt"
 viewBox="0.00 0.00 775.00 173.80" xmlns="http://www.w3.org/2000/svg" xmlns:xlink="http://www.w3.org/1999/xlink">
<g id="graph0" class="graph" transform="scale(1 1) rotate(0) translate(4 169.8)">
<title>dependencies</title>
<polygon fill="white" stroke="transparent" points="-4,4 -4,-169.8 771,-169.8 771,4 -4,4"/>
<text text-anchor="middle" x="383.5" y="-8.2" font-family="sans-serif" font-size="14.00">dependencies</text>
<g id="clust1" class="cluster">
<title>cluster_AppModule</title>
<polygon fill="none" stroke="black" stroke-dasharray="1,5" points="8,-32.8 8,-157.8 759,-157.8 759,-32.8 8,-32.8"/>
</g>
<g id="clust6" class="cluster">
<title>cluster_AppModule_providers</title>
<polygon fill="none" stroke="black" points="621,-40.8 621,-92.8 751,-92.8 751,-40.8 621,-40.8"/>
</g>
<g id="clust3" class="cluster">
<title>cluster_AppModule_imports</title>
<polygon fill="none" stroke="black" points="16,-40.8 16,-92.8 613,-92.8 613,-40.8 16,-40.8"/>
</g>
<!-- AdminModule -->
<g id="node1" class="node">
<title>AdminModule</title>
<polygon fill="#8dd3c7" stroke="black" points="605.44,-84.8 602.44,-88.8 581.44,-88.8 578.44,-84.8 506.56,-84.8 506.56,-48.8 605.44,-48.8 605.44,-84.8"/>
<text text-anchor="middle" x="556" y="-62.6" font-family="Times,serif" font-size="14.00">AdminModule</text>
</g>
<!-- AppModule -->
<g id="node6" class="node">
<title>AppModule</title>
<polygon fill="#8dd3c7" stroke="black" points="425.66,-149.8 422.66,-153.8 401.66,-153.8 398.66,-149.8 342.34,-149.8 342.34,-113.8 425.66,-113.8 425.66,-149.8"/>
<text text-anchor="middle" x="384" y="-127.6" font-family="Times,serif" font-size="14.00">AppModule</text>
</g>
<!-- AdminModule&#45;&gt;AppModule -->
<g id="edge1" class="edge">
<title>AdminModule&#45;&gt;AppModule</title>
<path fill="none" stroke="black" d="M556,-84.82C556,-102.17 556,-125.8 556,-125.8 556,-125.8 436.08,-125.8 436.08,-125.8"/>
<polygon fill="black" stroke="black" points="436.08,-122.3 426.08,-125.8 436.08,-129.3 436.08,-122.3"/>
</g>
<!-- LoginModule -->
<g id="node2" class="node">
<title>LoginModule</title>
<polygon fill="#8dd3c7" stroke="black" points="488.49,-84.8 485.49,-88.8 464.49,-88.8 461.49,-84.8 395.51,-84.8 395.51,-48.8 488.49,-48.8 488.49,-84.8"/>
<text text-anchor="middle" x="442" y="-62.6" font-family="Times,serif" font-size="14.00">LoginModule</text>
</g>
<!-- LoginModule&#45;&gt;AppModule -->
<g id="edge2" class="edge">
<title>LoginModule&#45;&gt;AppModule</title>
<path fill="none" stroke="black" d="M410.67,-84.91C410.67,-84.91 410.67,-103.79 410.67,-103.79"/>
<polygon fill="black" stroke="black" points="407.17,-103.79 410.67,-113.79 414.17,-103.79 407.17,-103.79"/>
</g>
<!-- ProductModule -->
<g id="node3" class="node">
<title>ProductModule</title>
<polygon fill="#8dd3c7" stroke="black" points="377.6,-84.8 374.6,-88.8 353.6,-88.8 350.6,-84.8 274.4,-84.8 274.4,-48.8 377.6,-48.8 377.6,-84.8"/>
<text text-anchor="middle" x="326" y="-62.6" font-family="Times,serif" font-size="14.00">ProductModule</text>
</g>
<!-- ProductModule&#45;&gt;AppModule -->
<g id="edge3" class="edge">
<title>ProductModule&#45;&gt;AppModule</title>
<path fill="none" stroke="black" d="M359.86,-84.91C359.86,-84.91 359.86,-103.79 359.86,-103.79"/>
<polygon fill="black" stroke="black" points="356.36,-103.79 359.86,-113.79 363.36,-103.79 356.36,-103.79"/>
</g>
<!-- ProductsModule -->
<g id="node4" class="node">
<title>ProductsModule</title>
<polygon fill="#8dd3c7" stroke="black" points="256.04,-84.8 253.04,-88.8 232.04,-88.8 229.04,-84.8 147.96,-84.8 147.96,-48.8 256.04,-48.8 256.04,-84.8"/>
<text text-anchor="middle" x="202" y="-62.6" font-family="Times,serif" font-size="14.00">ProductsModule</text>
</g>
<!-- ProductsModule&#45;&gt;AppModule -->
<g id="edge4" class="edge">
<title>ProductsModule&#45;&gt;AppModule</title>
<path fill="none" stroke="black" d="M202,-84.82C202,-102.17 202,-125.8 202,-125.8 202,-125.8 332.25,-125.8 332.25,-125.8"/>
<polygon fill="black" stroke="black" points="332.25,-129.3 342.25,-125.8 332.25,-122.3 332.25,-129.3"/>
</g>
<!-- RegisterModule -->
<g id="node5" class="node">
<title>RegisterModule</title>
<polygon fill="#8dd3c7" stroke="black" points="130.2,-84.8 127.2,-88.8 106.2,-88.8 103.2,-84.8 23.8,-84.8 23.8,-48.8 130.2,-48.8 130.2,-84.8"/>
<text text-anchor="middle" x="77" y="-62.6" font-family="Times,serif" font-size="14.00">RegisterModule</text>
</g>
<!-- RegisterModule&#45;&gt;AppModule -->
<g id="edge5" class="edge">
<title>RegisterModule&#45;&gt;AppModule</title>
<path fill="none" stroke="black" d="M77,-85.08C77,-106.12 77,-137.8 77,-137.8 77,-137.8 332.28,-137.8 332.28,-137.8"/>
<polygon fill="black" stroke="black" points="332.28,-141.3 342.28,-137.8 332.28,-134.3 332.28,-141.3"/>
</g>
<!-- AppService -->
<g id="node7" class="node">
<title>AppService</title>
<ellipse fill="#fdb462" stroke="black" cx="686" cy="-66.8" rx="56.74" ry="18"/>
<text text-anchor="middle" x="686" y="-62.6" font-family="Times,serif" font-size="14.00">AppService</text>
</g>
<!-- AppService&#45;&gt;AppModule -->
<g id="edge6" class="edge">
<title>AppService&#45;&gt;AppModule</title>
<path fill="none" stroke="black" d="M686,-85.08C686,-106.12 686,-137.8 686,-137.8 686,-137.8 435.67,-137.8 435.67,-137.8"/>
<polygon fill="black" stroke="black" points="435.67,-134.3 425.67,-137.8 435.67,-141.3 435.67,-134.3"/>
</g>
</g>
</svg>
